<mxfile host="app.diagrams.net" agent="Mozilla/5.0 (Windows NT 10.0; Win64; x64) AppleWebKit/537.36 (KHTML, like Gecko) Chrome/130.0.0.0 Safari/537.36 Edg/130.0.0.0" version="24.8.3">
  <diagram name="Page-1" id="QcSPTYwzE0Wv7wZv9sbd">
    <mxGraphModel grid="1" page="1" gridSize="10" guides="1" tooltips="1" connect="1" arrows="1" fold="1" pageScale="1" pageWidth="850" pageHeight="1100" math="0" shadow="0">
      <root>
        <mxCell id="0" />
        <mxCell id="1" parent="0" />
        <mxCell id="HnQaNsxPzA5SRA8-1qJC-114" value="" style="rounded=0;whiteSpace=wrap;html=1;" vertex="1" parent="1">
          <mxGeometry x="200" y="-880" width="360" height="520" as="geometry" />
        </mxCell>
        <mxCell id="HnQaNsxPzA5SRA8-1qJC-112" value="" style="rounded=0;whiteSpace=wrap;html=1;" vertex="1" parent="1">
          <mxGeometry x="900" y="1150" width="600" height="1640" as="geometry" />
        </mxCell>
        <mxCell id="HnQaNsxPzA5SRA8-1qJC-42" value="Start" style="strokeWidth=2;html=1;shape=mxgraph.flowchart.start_2;whiteSpace=wrap;" vertex="1" parent="1">
          <mxGeometry x="1180" y="1160" width="50" height="50" as="geometry" />
        </mxCell>
        <mxCell id="HnQaNsxPzA5SRA8-1qJC-43" value="Input data" style="rounded=1;whiteSpace=wrap;html=1;absoluteArcSize=1;arcSize=14;strokeWidth=2;" vertex="1" parent="1">
          <mxGeometry x="1146.25" y="1240" width="117.5" height="60" as="geometry" />
        </mxCell>
        <mxCell id="HnQaNsxPzA5SRA8-1qJC-44" value="" style="endArrow=classic;html=1;rounded=0;exitX=0.5;exitY=1;exitDx=0;exitDy=0;exitPerimeter=0;" edge="1" parent="1" source="HnQaNsxPzA5SRA8-1qJC-42" target="HnQaNsxPzA5SRA8-1qJC-43">
          <mxGeometry width="50" height="50" relative="1" as="geometry">
            <mxPoint x="399" y="1310" as="sourcePoint" />
            <mxPoint x="399" y="1370" as="targetPoint" />
          </mxGeometry>
        </mxCell>
        <mxCell id="HnQaNsxPzA5SRA8-1qJC-47" value="" style="endArrow=classic;html=1;rounded=0;exitX=0.5;exitY=1;exitDx=0;exitDy=0;entryX=0.5;entryY=0;entryDx=0;entryDy=0;entryPerimeter=0;" edge="1" parent="1" source="HnQaNsxPzA5SRA8-1qJC-43" target="Kr7eUfW6-zDZTBpOIOXm-1">
          <mxGeometry width="50" height="50" relative="1" as="geometry">
            <mxPoint x="1450" y="1370" as="sourcePoint" />
            <mxPoint x="1205" y="1340" as="targetPoint" />
          </mxGeometry>
        </mxCell>
        <mxCell id="HnQaNsxPzA5SRA8-1qJC-49" value="Get Component ID from tracking_code,&lt;div&gt;Get Values&lt;/div&gt;" style="rounded=1;whiteSpace=wrap;html=1;absoluteArcSize=1;arcSize=14;strokeWidth=2;" vertex="1" parent="1">
          <mxGeometry x="1146.25" y="1490" width="117.5" height="60" as="geometry" />
        </mxCell>
        <mxCell id="HnQaNsxPzA5SRA8-1qJC-51" value="" style="endArrow=classic;html=1;rounded=0;exitX=0.5;exitY=1;exitDx=0;exitDy=0;entryX=0.5;entryY=0;entryDx=0;entryDy=0;entryPerimeter=0;" edge="1" parent="1" source="HnQaNsxPzA5SRA8-1qJC-49" target="Kr7eUfW6-zDZTBpOIOXm-7">
          <mxGeometry width="50" height="50" relative="1" as="geometry">
            <mxPoint x="1590" y="1530" as="sourcePoint" />
            <mxPoint x="1205" y="1590" as="targetPoint" />
          </mxGeometry>
        </mxCell>
        <mxCell id="HnQaNsxPzA5SRA8-1qJC-54" value="" style="endArrow=classic;html=1;rounded=0;exitX=0.5;exitY=1;exitDx=0;exitDy=0;entryX=0.5;entryY=0;entryDx=0;entryDy=0;" edge="1" parent="1" source="HnQaNsxPzA5SRA8-1qJC-67" target="HnQaNsxPzA5SRA8-1qJC-65">
          <mxGeometry width="50" height="50" relative="1" as="geometry">
            <mxPoint x="1298.88" y="2150" as="sourcePoint" />
            <mxPoint x="1298.88" y="2190" as="targetPoint" />
          </mxGeometry>
        </mxCell>
        <mxCell id="HnQaNsxPzA5SRA8-1qJC-56" value="" style="endArrow=classic;html=1;rounded=0;exitX=0.5;exitY=1;exitDx=0;exitDy=0;entryX=0.5;entryY=0;entryDx=0;entryDy=0;" edge="1" parent="1" target="HnQaNsxPzA5SRA8-1qJC-67">
          <mxGeometry width="50" height="50" relative="1" as="geometry">
            <mxPoint x="1205.6299999999997" y="2060" as="sourcePoint" />
            <mxPoint x="1640.63" y="1770" as="targetPoint" />
          </mxGeometry>
        </mxCell>
        <mxCell id="HnQaNsxPzA5SRA8-1qJC-59" value="" style="endArrow=classic;html=1;rounded=0;entryX=0.5;entryY=0;entryDx=0;entryDy=0;exitX=0.5;exitY=1;exitDx=0;exitDy=0;entryPerimeter=0;" edge="1" parent="1" source="HnQaNsxPzA5SRA8-1qJC-70">
          <mxGeometry width="50" height="50" relative="1" as="geometry">
            <mxPoint x="1340.63" y="2660" as="sourcePoint" />
            <mxPoint x="1206.88" y="2710" as="targetPoint" />
          </mxGeometry>
        </mxCell>
        <mxCell id="HnQaNsxPzA5SRA8-1qJC-65" value="Group by" style="rounded=1;whiteSpace=wrap;html=1;absoluteArcSize=1;arcSize=14;strokeWidth=2;" vertex="1" parent="1">
          <mxGeometry x="1146.88" y="2210" width="117.5" height="60" as="geometry" />
        </mxCell>
        <mxCell id="HnQaNsxPzA5SRA8-1qJC-66" value="Sort output data" style="rounded=1;whiteSpace=wrap;html=1;absoluteArcSize=1;arcSize=14;strokeWidth=2;" vertex="1" parent="1">
          <mxGeometry x="1148.13" y="2510" width="117.5" height="60" as="geometry" />
        </mxCell>
        <mxCell id="HnQaNsxPzA5SRA8-1qJC-67" value="Mapping device" style="rounded=1;whiteSpace=wrap;html=1;absoluteArcSize=1;arcSize=14;strokeWidth=2;" vertex="1" parent="1">
          <mxGeometry x="1146.88" y="2100" width="117.5" height="60" as="geometry" />
        </mxCell>
        <mxCell id="HnQaNsxPzA5SRA8-1qJC-68" value="Mapping Keyword_MatchType" style="rounded=1;whiteSpace=wrap;html=1;absoluteArcSize=1;arcSize=14;strokeWidth=2;" vertex="1" parent="1">
          <mxGeometry x="1148.13" y="2000" width="117.5" height="60" as="geometry" />
        </mxCell>
        <mxCell id="HnQaNsxPzA5SRA8-1qJC-69" value="Get output file name" style="rounded=1;whiteSpace=wrap;html=1;absoluteArcSize=1;arcSize=14;strokeWidth=2;" vertex="1" parent="1">
          <mxGeometry x="1146.88" y="2310" width="117.5" height="60" as="geometry" />
        </mxCell>
        <mxCell id="HnQaNsxPzA5SRA8-1qJC-70" value="Output" style="rounded=1;whiteSpace=wrap;html=1;absoluteArcSize=1;arcSize=14;strokeWidth=2;" vertex="1" parent="1">
          <mxGeometry x="1148.13" y="2610" width="117.5" height="60" as="geometry" />
        </mxCell>
        <mxCell id="HnQaNsxPzA5SRA8-1qJC-89" value="End" style="strokeWidth=2;html=1;shape=mxgraph.flowchart.start_2;whiteSpace=wrap;" vertex="1" parent="1">
          <mxGeometry x="1181.88" y="2710" width="50" height="50" as="geometry" />
        </mxCell>
        <mxCell id="HnQaNsxPzA5SRA8-1qJC-98" value="" style="endArrow=classic;html=1;rounded=0;exitX=0.5;exitY=1;exitDx=0;exitDy=0;entryX=0.5;entryY=0;entryDx=0;entryDy=0;" edge="1" parent="1">
          <mxGeometry width="50" height="50" relative="1" as="geometry">
            <mxPoint x="1690" y="380" as="sourcePoint" />
            <mxPoint x="1690" y="420" as="targetPoint" />
          </mxGeometry>
        </mxCell>
        <mxCell id="HnQaNsxPzA5SRA8-1qJC-100" value="Start" style="strokeWidth=2;html=1;shape=mxgraph.flowchart.start_2;whiteSpace=wrap;" vertex="1" parent="1">
          <mxGeometry x="356.25" y="-870" width="50" height="50" as="geometry" />
        </mxCell>
        <mxCell id="HnQaNsxPzA5SRA8-1qJC-101" value="Read config,&amp;nbsp;&lt;div&gt;Set variable&lt;/div&gt;" style="rounded=1;whiteSpace=wrap;html=1;absoluteArcSize=1;arcSize=14;strokeWidth=2;" vertex="1" parent="1">
          <mxGeometry x="321.25" y="-790" width="117.5" height="60" as="geometry" />
        </mxCell>
        <mxCell id="HnQaNsxPzA5SRA8-1qJC-102" value="End" style="strokeWidth=2;html=1;shape=mxgraph.flowchart.start_2;whiteSpace=wrap;" vertex="1" parent="1">
          <mxGeometry x="356.25" y="-430" width="50" height="50" as="geometry" />
        </mxCell>
        <mxCell id="HnQaNsxPzA5SRA8-1qJC-103" value="" style="endArrow=classic;html=1;rounded=0;exitX=0.5;exitY=1;exitDx=0;exitDy=0;exitPerimeter=0;entryX=0.5;entryY=0;entryDx=0;entryDy=0;" edge="1" parent="1" source="HnQaNsxPzA5SRA8-1qJC-100" target="HnQaNsxPzA5SRA8-1qJC-101">
          <mxGeometry width="50" height="50" relative="1" as="geometry">
            <mxPoint x="541.25" y="-680" as="sourcePoint" />
            <mxPoint x="601.25" y="-600" as="targetPoint" />
          </mxGeometry>
        </mxCell>
        <mxCell id="HnQaNsxPzA5SRA8-1qJC-104" value="Renew folder output" style="rounded=1;whiteSpace=wrap;html=1;absoluteArcSize=1;arcSize=14;strokeWidth=2;" vertex="1" parent="1">
          <mxGeometry x="321.25" y="-670" width="117.5" height="60" as="geometry" />
        </mxCell>
        <mxCell id="HnQaNsxPzA5SRA8-1qJC-105" value="Format data,&lt;div&gt;&amp;nbsp;Export output&lt;/div&gt;" style="rounded=1;whiteSpace=wrap;html=1;absoluteArcSize=1;arcSize=14;strokeWidth=2;" vertex="1" parent="1">
          <mxGeometry x="322.5" y="-550" width="117.5" height="60" as="geometry" />
        </mxCell>
        <mxCell id="HnQaNsxPzA5SRA8-1qJC-106" value="" style="endArrow=classic;html=1;rounded=0;exitX=0.5;exitY=1;exitDx=0;exitDy=0;" edge="1" parent="1" source="HnQaNsxPzA5SRA8-1qJC-101" target="HnQaNsxPzA5SRA8-1qJC-104">
          <mxGeometry width="50" height="50" relative="1" as="geometry">
            <mxPoint x="501.25" y="-480" as="sourcePoint" />
            <mxPoint x="551.25" y="-530" as="targetPoint" />
          </mxGeometry>
        </mxCell>
        <mxCell id="HnQaNsxPzA5SRA8-1qJC-107" value="" style="endArrow=classic;html=1;rounded=0;exitX=0.5;exitY=1;exitDx=0;exitDy=0;entryX=0.5;entryY=0;entryDx=0;entryDy=0;" edge="1" parent="1" source="HnQaNsxPzA5SRA8-1qJC-104" target="HnQaNsxPzA5SRA8-1qJC-105">
          <mxGeometry width="50" height="50" relative="1" as="geometry">
            <mxPoint x="390.25" y="-720" as="sourcePoint" />
            <mxPoint x="390.25" y="-660" as="targetPoint" />
          </mxGeometry>
        </mxCell>
        <mxCell id="HnQaNsxPzA5SRA8-1qJC-108" value="" style="endArrow=classic;html=1;rounded=0;exitX=0.5;exitY=1;exitDx=0;exitDy=0;entryX=0.5;entryY=0;entryDx=0;entryDy=0;entryPerimeter=0;" edge="1" parent="1" source="HnQaNsxPzA5SRA8-1qJC-105" target="HnQaNsxPzA5SRA8-1qJC-102">
          <mxGeometry width="50" height="50" relative="1" as="geometry">
            <mxPoint x="400.25" y="-710" as="sourcePoint" />
            <mxPoint x="400.25" y="-650" as="targetPoint" />
          </mxGeometry>
        </mxCell>
        <mxCell id="HnQaNsxPzA5SRA8-1qJC-113" value="&lt;font style=&quot;font-size: 21px;&quot;&gt;Transform data&lt;/font&gt;" style="text;html=1;align=left;verticalAlign=middle;whiteSpace=wrap;rounded=0;" vertex="1" parent="1">
          <mxGeometry x="880" y="1100" width="180" height="30" as="geometry" />
        </mxCell>
        <mxCell id="HnQaNsxPzA5SRA8-1qJC-115" value="&lt;font style=&quot;font-size: 21px;&quot;&gt;Overview&lt;/font&gt;" style="text;html=1;align=left;verticalAlign=middle;whiteSpace=wrap;rounded=0;" vertex="1" parent="1">
          <mxGeometry x="200" y="-910" width="180" height="30" as="geometry" />
        </mxCell>
        <mxCell id="HnQaNsxPzA5SRA8-1qJC-116" value="" style="rounded=0;whiteSpace=wrap;html=1;" vertex="1" parent="1">
          <mxGeometry x="990" y="-880" width="400" height="460" as="geometry" />
        </mxCell>
        <mxCell id="HnQaNsxPzA5SRA8-1qJC-117" value="Read config,&lt;div&gt;Get variable&lt;/div&gt;&lt;div&gt;(PATTERN_FILE_NAME,&lt;/div&gt;&lt;div&gt;OUTPUT_FILE_NAME&lt;/div&gt;&lt;div&gt;ADS_ACCOUNT_ID,&lt;/div&gt;&lt;div&gt;YSS_ACCOUNT_ID)&lt;/div&gt;" style="rounded=1;whiteSpace=wrap;html=1;absoluteArcSize=1;arcSize=14;strokeWidth=2;" vertex="1" parent="1">
          <mxGeometry x="1100" y="-760" width="160" height="110" as="geometry" />
        </mxCell>
        <mxCell id="HnQaNsxPzA5SRA8-1qJC-118" value="End" style="strokeWidth=2;html=1;shape=mxgraph.flowchart.start_2;whiteSpace=wrap;" vertex="1" parent="1">
          <mxGeometry x="1155" y="-490" width="50" height="50" as="geometry" />
        </mxCell>
        <mxCell id="HnQaNsxPzA5SRA8-1qJC-119" value="" style="endArrow=classic;html=1;rounded=0;exitX=0.5;exitY=1;exitDx=0;exitDy=0;exitPerimeter=0;entryX=0.5;entryY=0;entryDx=0;entryDy=0;" edge="1" parent="1" target="HnQaNsxPzA5SRA8-1qJC-117">
          <mxGeometry width="50" height="50" relative="1" as="geometry">
            <mxPoint x="1180" y="-790" as="sourcePoint" />
            <mxPoint x="1400" y="-570" as="targetPoint" />
          </mxGeometry>
        </mxCell>
        <mxCell id="HnQaNsxPzA5SRA8-1qJC-120" value="Set variable&amp;nbsp;&lt;div&gt;(INPUT_FILE_NAME,&lt;/div&gt;&lt;div&gt;START_DATE,&lt;/div&gt;&lt;div&gt;END_DATE)&lt;/div&gt;" style="rounded=1;whiteSpace=wrap;html=1;absoluteArcSize=1;arcSize=14;strokeWidth=2;" vertex="1" parent="1">
          <mxGeometry x="1100" y="-610" width="160" height="70" as="geometry" />
        </mxCell>
        <mxCell id="HnQaNsxPzA5SRA8-1qJC-121" value="" style="endArrow=classic;html=1;rounded=0;exitX=0.5;exitY=1;exitDx=0;exitDy=0;" edge="1" parent="1" source="HnQaNsxPzA5SRA8-1qJC-117" target="HnQaNsxPzA5SRA8-1qJC-120">
          <mxGeometry width="50" height="50" relative="1" as="geometry">
            <mxPoint x="1300" y="-450" as="sourcePoint" />
            <mxPoint x="1350" y="-500" as="targetPoint" />
          </mxGeometry>
        </mxCell>
        <mxCell id="HnQaNsxPzA5SRA8-1qJC-122" value="" style="endArrow=classic;html=1;rounded=0;exitX=0.5;exitY=1;exitDx=0;exitDy=0;entryX=0.5;entryY=0;entryDx=0;entryDy=0;entryPerimeter=0;" edge="1" parent="1" source="HnQaNsxPzA5SRA8-1qJC-120" target="HnQaNsxPzA5SRA8-1qJC-118">
          <mxGeometry width="50" height="50" relative="1" as="geometry">
            <mxPoint x="1178.75" y="-220" as="sourcePoint" />
            <mxPoint x="1197.75" y="-380" as="targetPoint" />
          </mxGeometry>
        </mxCell>
        <mxCell id="HnQaNsxPzA5SRA8-1qJC-123" value="Start" style="strokeWidth=2;html=1;shape=mxgraph.flowchart.start_2;whiteSpace=wrap;" vertex="1" parent="1">
          <mxGeometry x="1155" y="-840" width="50" height="50" as="geometry" />
        </mxCell>
        <mxCell id="HnQaNsxPzA5SRA8-1qJC-124" value="&lt;font style=&quot;font-size: 21px;&quot;&gt;Read config, set variable&lt;/font&gt;" style="text;html=1;align=left;verticalAlign=middle;whiteSpace=wrap;rounded=0;" vertex="1" parent="1">
          <mxGeometry x="990" y="-910" width="260" height="30" as="geometry" />
        </mxCell>
        <mxCell id="HnQaNsxPzA5SRA8-1qJC-136" value="" style="rounded=0;whiteSpace=wrap;html=1;" vertex="1" parent="1">
          <mxGeometry x="200" y="40" width="400" height="460" as="geometry" />
        </mxCell>
        <mxCell id="HnQaNsxPzA5SRA8-1qJC-137" value="Delete folder output" style="rounded=1;whiteSpace=wrap;html=1;absoluteArcSize=1;arcSize=14;strokeWidth=2;" vertex="1" parent="1">
          <mxGeometry x="320" y="160" width="160" height="70" as="geometry" />
        </mxCell>
        <mxCell id="HnQaNsxPzA5SRA8-1qJC-138" value="End" style="strokeWidth=2;html=1;shape=mxgraph.flowchart.start_2;whiteSpace=wrap;" vertex="1" parent="1">
          <mxGeometry x="375" y="430" width="50" height="50" as="geometry" />
        </mxCell>
        <mxCell id="HnQaNsxPzA5SRA8-1qJC-139" value="" style="endArrow=classic;html=1;rounded=0;exitX=0.5;exitY=1;exitDx=0;exitDy=0;exitPerimeter=0;entryX=0.5;entryY=0;entryDx=0;entryDy=0;" edge="1" parent="1" target="HnQaNsxPzA5SRA8-1qJC-137">
          <mxGeometry width="50" height="50" relative="1" as="geometry">
            <mxPoint x="400" y="130" as="sourcePoint" />
            <mxPoint x="620" y="350" as="targetPoint" />
          </mxGeometry>
        </mxCell>
        <mxCell id="HnQaNsxPzA5SRA8-1qJC-140" value="Create folder output" style="rounded=1;whiteSpace=wrap;html=1;absoluteArcSize=1;arcSize=14;strokeWidth=2;" vertex="1" parent="1">
          <mxGeometry x="320" y="310" width="160" height="70" as="geometry" />
        </mxCell>
        <mxCell id="HnQaNsxPzA5SRA8-1qJC-141" value="" style="endArrow=classic;html=1;rounded=0;exitX=0.5;exitY=1;exitDx=0;exitDy=0;" edge="1" parent="1" source="HnQaNsxPzA5SRA8-1qJC-137" target="HnQaNsxPzA5SRA8-1qJC-140">
          <mxGeometry width="50" height="50" relative="1" as="geometry">
            <mxPoint x="520" y="470" as="sourcePoint" />
            <mxPoint x="570" y="420" as="targetPoint" />
          </mxGeometry>
        </mxCell>
        <mxCell id="HnQaNsxPzA5SRA8-1qJC-142" value="" style="endArrow=classic;html=1;rounded=0;exitX=0.5;exitY=1;exitDx=0;exitDy=0;entryX=0.5;entryY=0;entryDx=0;entryDy=0;entryPerimeter=0;" edge="1" parent="1" source="HnQaNsxPzA5SRA8-1qJC-140" target="HnQaNsxPzA5SRA8-1qJC-138">
          <mxGeometry width="50" height="50" relative="1" as="geometry">
            <mxPoint x="398.75" y="700" as="sourcePoint" />
            <mxPoint x="417.75" y="540" as="targetPoint" />
          </mxGeometry>
        </mxCell>
        <mxCell id="HnQaNsxPzA5SRA8-1qJC-143" value="Start" style="strokeWidth=2;html=1;shape=mxgraph.flowchart.start_2;whiteSpace=wrap;" vertex="1" parent="1">
          <mxGeometry x="375" y="80" width="50" height="50" as="geometry" />
        </mxCell>
        <mxCell id="HnQaNsxPzA5SRA8-1qJC-144" value="&lt;span style=&quot;font-size: 21px;&quot;&gt;Renew folder output&lt;/span&gt;" style="text;html=1;align=left;verticalAlign=middle;whiteSpace=wrap;rounded=0;" vertex="1" parent="1">
          <mxGeometry x="200" y="10" width="260" height="30" as="geometry" />
        </mxCell>
        <mxCell id="HnQaNsxPzA5SRA8-1qJC-145" value="" style="rounded=0;whiteSpace=wrap;html=1;" vertex="1" parent="1">
          <mxGeometry x="990" y="40" width="360" height="520" as="geometry" />
        </mxCell>
        <mxCell id="HnQaNsxPzA5SRA8-1qJC-146" value="Start" style="strokeWidth=2;html=1;shape=mxgraph.flowchart.start_2;whiteSpace=wrap;" vertex="1" parent="1">
          <mxGeometry x="1146.25" y="50" width="50" height="50" as="geometry" />
        </mxCell>
        <mxCell id="HnQaNsxPzA5SRA8-1qJC-147" value="Check file exist" style="rounded=1;whiteSpace=wrap;html=1;absoluteArcSize=1;arcSize=14;strokeWidth=2;" vertex="1" parent="1">
          <mxGeometry x="1111.25" y="130" width="117.5" height="60" as="geometry" />
        </mxCell>
        <mxCell id="HnQaNsxPzA5SRA8-1qJC-148" value="End" style="strokeWidth=2;html=1;shape=mxgraph.flowchart.start_2;whiteSpace=wrap;" vertex="1" parent="1">
          <mxGeometry x="1146.25" y="490" width="50" height="50" as="geometry" />
        </mxCell>
        <mxCell id="HnQaNsxPzA5SRA8-1qJC-149" value="" style="endArrow=classic;html=1;rounded=0;exitX=0.5;exitY=1;exitDx=0;exitDy=0;exitPerimeter=0;entryX=0.5;entryY=0;entryDx=0;entryDy=0;" edge="1" parent="1" source="HnQaNsxPzA5SRA8-1qJC-146" target="HnQaNsxPzA5SRA8-1qJC-147">
          <mxGeometry width="50" height="50" relative="1" as="geometry">
            <mxPoint x="1331.25" y="240" as="sourcePoint" />
            <mxPoint x="1391.25" y="320" as="targetPoint" />
          </mxGeometry>
        </mxCell>
        <mxCell id="HnQaNsxPzA5SRA8-1qJC-150" value="Transform data" style="rounded=1;whiteSpace=wrap;html=1;absoluteArcSize=1;arcSize=14;strokeWidth=2;" vertex="1" parent="1">
          <mxGeometry x="1111.25" y="250" width="117.5" height="60" as="geometry" />
        </mxCell>
        <mxCell id="HnQaNsxPzA5SRA8-1qJC-151" value="Create empty file" style="rounded=1;whiteSpace=wrap;html=1;absoluteArcSize=1;arcSize=14;strokeWidth=2;" vertex="1" parent="1">
          <mxGeometry x="1112.5" y="370" width="117.5" height="60" as="geometry" />
        </mxCell>
        <mxCell id="HnQaNsxPzA5SRA8-1qJC-152" value="" style="endArrow=classic;html=1;rounded=0;exitX=0.5;exitY=1;exitDx=0;exitDy=0;" edge="1" parent="1" source="HnQaNsxPzA5SRA8-1qJC-147" target="HnQaNsxPzA5SRA8-1qJC-150">
          <mxGeometry width="50" height="50" relative="1" as="geometry">
            <mxPoint x="1291.25" y="440" as="sourcePoint" />
            <mxPoint x="1341.25" y="390" as="targetPoint" />
          </mxGeometry>
        </mxCell>
        <mxCell id="HnQaNsxPzA5SRA8-1qJC-153" value="" style="endArrow=classic;html=1;rounded=0;exitX=0.5;exitY=1;exitDx=0;exitDy=0;entryX=0.5;entryY=0;entryDx=0;entryDy=0;" edge="1" parent="1" source="HnQaNsxPzA5SRA8-1qJC-150" target="HnQaNsxPzA5SRA8-1qJC-151">
          <mxGeometry width="50" height="50" relative="1" as="geometry">
            <mxPoint x="1180.25" y="200" as="sourcePoint" />
            <mxPoint x="1180.25" y="260" as="targetPoint" />
          </mxGeometry>
        </mxCell>
        <mxCell id="HnQaNsxPzA5SRA8-1qJC-154" value="" style="endArrow=classic;html=1;rounded=0;exitX=0.5;exitY=1;exitDx=0;exitDy=0;entryX=0.5;entryY=0;entryDx=0;entryDy=0;entryPerimeter=0;" edge="1" parent="1" source="HnQaNsxPzA5SRA8-1qJC-151" target="HnQaNsxPzA5SRA8-1qJC-148">
          <mxGeometry width="50" height="50" relative="1" as="geometry">
            <mxPoint x="1190.25" y="210" as="sourcePoint" />
            <mxPoint x="1190.25" y="270" as="targetPoint" />
          </mxGeometry>
        </mxCell>
        <mxCell id="HnQaNsxPzA5SRA8-1qJC-155" value="&lt;font style=&quot;font-size: 21px;&quot;&gt;Format data, export output&lt;/font&gt;" style="text;html=1;align=left;verticalAlign=middle;whiteSpace=wrap;rounded=0;" vertex="1" parent="1">
          <mxGeometry x="990" y="10" width="260" height="30" as="geometry" />
        </mxCell>
        <mxCell id="HnQaNsxPzA5SRA8-1qJC-156" value="" style="rounded=0;whiteSpace=wrap;html=1;" vertex="1" parent="1">
          <mxGeometry x="200" y="1130" width="360" height="520" as="geometry" />
        </mxCell>
        <mxCell id="HnQaNsxPzA5SRA8-1qJC-157" value="Start" style="strokeWidth=2;html=1;shape=mxgraph.flowchart.start_2;whiteSpace=wrap;" vertex="1" parent="1">
          <mxGeometry x="356.25" y="1140" width="50" height="50" as="geometry" />
        </mxCell>
        <mxCell id="HnQaNsxPzA5SRA8-1qJC-158" value="Get file name" style="rounded=1;whiteSpace=wrap;html=1;absoluteArcSize=1;arcSize=14;strokeWidth=2;" vertex="1" parent="1">
          <mxGeometry x="321.25" y="1220" width="117.5" height="60" as="geometry" />
        </mxCell>
        <mxCell id="HnQaNsxPzA5SRA8-1qJC-159" value="End" style="strokeWidth=2;html=1;shape=mxgraph.flowchart.start_2;whiteSpace=wrap;" vertex="1" parent="1">
          <mxGeometry x="356.25" y="1580" width="50" height="50" as="geometry" />
        </mxCell>
        <mxCell id="HnQaNsxPzA5SRA8-1qJC-160" value="" style="endArrow=classic;html=1;rounded=0;exitX=0.5;exitY=1;exitDx=0;exitDy=0;exitPerimeter=0;entryX=0.5;entryY=0;entryDx=0;entryDy=0;" edge="1" parent="1" source="HnQaNsxPzA5SRA8-1qJC-157" target="HnQaNsxPzA5SRA8-1qJC-158">
          <mxGeometry width="50" height="50" relative="1" as="geometry">
            <mxPoint x="541.25" y="1330" as="sourcePoint" />
            <mxPoint x="601.25" y="1410" as="targetPoint" />
          </mxGeometry>
        </mxCell>
        <mxCell id="HnQaNsxPzA5SRA8-1qJC-161" value="Detect empty stream" style="rounded=1;whiteSpace=wrap;html=1;absoluteArcSize=1;arcSize=14;strokeWidth=2;" vertex="1" parent="1">
          <mxGeometry x="321.25" y="1340" width="117.5" height="60" as="geometry" />
        </mxCell>
        <mxCell id="HnQaNsxPzA5SRA8-1qJC-162" value="Abort" style="rounded=1;whiteSpace=wrap;html=1;absoluteArcSize=1;arcSize=14;strokeWidth=2;" vertex="1" parent="1">
          <mxGeometry x="322.5" y="1460" width="117.5" height="60" as="geometry" />
        </mxCell>
        <mxCell id="HnQaNsxPzA5SRA8-1qJC-163" value="" style="endArrow=classic;html=1;rounded=0;exitX=0.5;exitY=1;exitDx=0;exitDy=0;" edge="1" parent="1" source="HnQaNsxPzA5SRA8-1qJC-158" target="HnQaNsxPzA5SRA8-1qJC-161">
          <mxGeometry width="50" height="50" relative="1" as="geometry">
            <mxPoint x="501.25" y="1530" as="sourcePoint" />
            <mxPoint x="551.25" y="1480" as="targetPoint" />
          </mxGeometry>
        </mxCell>
        <mxCell id="HnQaNsxPzA5SRA8-1qJC-164" value="" style="endArrow=classic;html=1;rounded=0;exitX=0.5;exitY=1;exitDx=0;exitDy=0;entryX=0.5;entryY=0;entryDx=0;entryDy=0;" edge="1" parent="1" source="HnQaNsxPzA5SRA8-1qJC-161" target="HnQaNsxPzA5SRA8-1qJC-162">
          <mxGeometry width="50" height="50" relative="1" as="geometry">
            <mxPoint x="390.25" y="1290" as="sourcePoint" />
            <mxPoint x="390.25" y="1350" as="targetPoint" />
          </mxGeometry>
        </mxCell>
        <mxCell id="HnQaNsxPzA5SRA8-1qJC-165" value="" style="endArrow=classic;html=1;rounded=0;exitX=0.5;exitY=1;exitDx=0;exitDy=0;entryX=0.5;entryY=0;entryDx=0;entryDy=0;entryPerimeter=0;" edge="1" parent="1" source="HnQaNsxPzA5SRA8-1qJC-162" target="HnQaNsxPzA5SRA8-1qJC-159">
          <mxGeometry width="50" height="50" relative="1" as="geometry">
            <mxPoint x="400.25" y="1300" as="sourcePoint" />
            <mxPoint x="400.25" y="1360" as="targetPoint" />
          </mxGeometry>
        </mxCell>
        <mxCell id="HnQaNsxPzA5SRA8-1qJC-166" value="&lt;font style=&quot;font-size: 21px;&quot;&gt;Check file exist&lt;/font&gt;" style="text;html=1;align=left;verticalAlign=middle;whiteSpace=wrap;rounded=0;" vertex="1" parent="1">
          <mxGeometry x="200" y="1100" width="180" height="30" as="geometry" />
        </mxCell>
        <mxCell id="HnQaNsxPzA5SRA8-1qJC-167" value="" style="rounded=0;whiteSpace=wrap;html=1;" vertex="1" parent="1">
          <mxGeometry x="200" y="2130" width="360" height="420" as="geometry" />
        </mxCell>
        <mxCell id="HnQaNsxPzA5SRA8-1qJC-168" value="Start" style="strokeWidth=2;html=1;shape=mxgraph.flowchart.start_2;whiteSpace=wrap;" vertex="1" parent="1">
          <mxGeometry x="356.25" y="2140" width="50" height="50" as="geometry" />
        </mxCell>
        <mxCell id="HnQaNsxPzA5SRA8-1qJC-169" value="Get variable&lt;div&gt;(START_DATE,&lt;/div&gt;&lt;div&gt;END_DATE)&lt;/div&gt;" style="rounded=1;whiteSpace=wrap;html=1;absoluteArcSize=1;arcSize=14;strokeWidth=2;" vertex="1" parent="1">
          <mxGeometry x="321.25" y="2220" width="117.5" height="60" as="geometry" />
        </mxCell>
        <mxCell id="HnQaNsxPzA5SRA8-1qJC-170" value="End" style="strokeWidth=2;html=1;shape=mxgraph.flowchart.start_2;whiteSpace=wrap;" vertex="1" parent="1">
          <mxGeometry x="355" y="2475" width="50" height="50" as="geometry" />
        </mxCell>
        <mxCell id="HnQaNsxPzA5SRA8-1qJC-171" value="" style="endArrow=classic;html=1;rounded=0;exitX=0.5;exitY=1;exitDx=0;exitDy=0;exitPerimeter=0;entryX=0.5;entryY=0;entryDx=0;entryDy=0;" edge="1" parent="1" source="HnQaNsxPzA5SRA8-1qJC-168" target="HnQaNsxPzA5SRA8-1qJC-169">
          <mxGeometry width="50" height="50" relative="1" as="geometry">
            <mxPoint x="541.25" y="2330" as="sourcePoint" />
            <mxPoint x="601.25" y="2410" as="targetPoint" />
          </mxGeometry>
        </mxCell>
        <mxCell id="HnQaNsxPzA5SRA8-1qJC-172" value="Create empty file" style="rounded=1;whiteSpace=wrap;html=1;absoluteArcSize=1;arcSize=14;strokeWidth=2;" vertex="1" parent="1">
          <mxGeometry x="321.25" y="2340" width="117.5" height="60" as="geometry" />
        </mxCell>
        <mxCell id="HnQaNsxPzA5SRA8-1qJC-174" value="" style="endArrow=classic;html=1;rounded=0;exitX=0.5;exitY=1;exitDx=0;exitDy=0;" edge="1" parent="1" source="HnQaNsxPzA5SRA8-1qJC-169" target="HnQaNsxPzA5SRA8-1qJC-172">
          <mxGeometry width="50" height="50" relative="1" as="geometry">
            <mxPoint x="501.25" y="2530" as="sourcePoint" />
            <mxPoint x="551.25" y="2480" as="targetPoint" />
          </mxGeometry>
        </mxCell>
        <mxCell id="HnQaNsxPzA5SRA8-1qJC-177" value="&lt;font style=&quot;font-size: 21px;&quot;&gt;Create empty file&lt;/font&gt;" style="text;html=1;align=left;verticalAlign=middle;whiteSpace=wrap;rounded=0;" vertex="1" parent="1">
          <mxGeometry x="200" y="2100" width="180" height="30" as="geometry" />
        </mxCell>
        <mxCell id="HnQaNsxPzA5SRA8-1qJC-178" value="" style="endArrow=classic;html=1;rounded=0;exitX=0.5;exitY=1;exitDx=0;exitDy=0;entryX=0.5;entryY=0;entryDx=0;entryDy=0;entryPerimeter=0;" edge="1" parent="1" source="HnQaNsxPzA5SRA8-1qJC-172" target="HnQaNsxPzA5SRA8-1qJC-170">
          <mxGeometry width="50" height="50" relative="1" as="geometry">
            <mxPoint x="440" y="2420" as="sourcePoint" />
            <mxPoint x="440" y="2480" as="targetPoint" />
          </mxGeometry>
        </mxCell>
        <mxCell id="Kr7eUfW6-zDZTBpOIOXm-1" value="Filter&lt;div&gt;Tracking_code != null&lt;/div&gt;" style="strokeWidth=2;html=1;shape=mxgraph.flowchart.decision;whiteSpace=wrap;" vertex="1" parent="1">
          <mxGeometry x="1120" y="1350" width="170" height="100" as="geometry" />
        </mxCell>
        <mxCell id="Kr7eUfW6-zDZTBpOIOXm-2" value="" style="endArrow=classic;html=1;rounded=0;exitX=0.5;exitY=1;exitDx=0;exitDy=0;exitPerimeter=0;entryX=0.5;entryY=0;entryDx=0;entryDy=0;" edge="1" parent="1" source="Kr7eUfW6-zDZTBpOIOXm-1" target="HnQaNsxPzA5SRA8-1qJC-49">
          <mxGeometry width="50" height="50" relative="1" as="geometry">
            <mxPoint x="1080" y="1560" as="sourcePoint" />
            <mxPoint x="1130" y="1510" as="targetPoint" />
          </mxGeometry>
        </mxCell>
        <mxCell id="Kr7eUfW6-zDZTBpOIOXm-3" value="True" style="text;html=1;align=center;verticalAlign=middle;whiteSpace=wrap;rounded=0;" vertex="1" parent="1">
          <mxGeometry x="1200" y="1450" width="60" height="30" as="geometry" />
        </mxCell>
        <mxCell id="Kr7eUfW6-zDZTBpOIOXm-4" value="False" style="text;html=1;align=center;verticalAlign=middle;whiteSpace=wrap;rounded=0;" vertex="1" parent="1">
          <mxGeometry x="1070" y="1370" width="60" height="30" as="geometry" />
        </mxCell>
        <mxCell id="Kr7eUfW6-zDZTBpOIOXm-5" value="" style="endArrow=classic;html=1;rounded=0;exitX=0;exitY=0.5;exitDx=0;exitDy=0;exitPerimeter=0;entryX=1;entryY=0.5;entryDx=0;entryDy=0;" edge="1" parent="1" source="Kr7eUfW6-zDZTBpOIOXm-1" target="Kr7eUfW6-zDZTBpOIOXm-6">
          <mxGeometry width="50" height="50" relative="1" as="geometry">
            <mxPoint x="990" y="1680" as="sourcePoint" />
            <mxPoint x="1040" y="1630" as="targetPoint" />
          </mxGeometry>
        </mxCell>
        <mxCell id="Kr7eUfW6-zDZTBpOIOXm-6" value="Do nothing" style="rounded=1;whiteSpace=wrap;html=1;absoluteArcSize=1;arcSize=14;strokeWidth=2;" vertex="1" parent="1">
          <mxGeometry x="932.5" y="1370" width="117.5" height="60" as="geometry" />
        </mxCell>
        <mxCell id="Kr7eUfW6-zDZTBpOIOXm-7" value="Filter&amp;nbsp;&lt;div&gt;media != null,&lt;/div&gt;&lt;div&gt;CV01 &amp;gt; 0,&amp;nbsp;&amp;nbsp;&lt;/div&gt;&lt;div&gt;start date &amp;lt; date&amp;nbsp;&lt;/div&gt;&lt;div&gt;date &amp;lt; end date&lt;/div&gt;" style="strokeWidth=2;html=1;shape=mxgraph.flowchart.decision;whiteSpace=wrap;" vertex="1" parent="1">
          <mxGeometry x="1120" y="1590" width="170" height="140" as="geometry" />
        </mxCell>
        <mxCell id="Kr7eUfW6-zDZTBpOIOXm-9" value="Do nothing" style="rounded=1;whiteSpace=wrap;html=1;absoluteArcSize=1;arcSize=14;strokeWidth=2;" vertex="1" parent="1">
          <mxGeometry x="932.5" y="1630" width="117.5" height="60" as="geometry" />
        </mxCell>
        <mxCell id="Kr7eUfW6-zDZTBpOIOXm-10" value="" style="endArrow=classic;html=1;rounded=0;exitX=0;exitY=0.5;exitDx=0;exitDy=0;exitPerimeter=0;entryX=1;entryY=0.5;entryDx=0;entryDy=0;" edge="1" parent="1">
          <mxGeometry width="50" height="50" relative="1" as="geometry">
            <mxPoint x="1120" y="1659.38" as="sourcePoint" />
            <mxPoint x="1050" y="1659.38" as="targetPoint" />
          </mxGeometry>
        </mxCell>
        <mxCell id="Kr7eUfW6-zDZTBpOIOXm-11" value="False" style="text;html=1;align=center;verticalAlign=middle;whiteSpace=wrap;rounded=0;" vertex="1" parent="1">
          <mxGeometry x="1060" y="1630" width="60" height="30" as="geometry" />
        </mxCell>
        <mxCell id="Kr7eUfW6-zDZTBpOIOXm-12" value="True" style="text;html=1;align=center;verticalAlign=middle;whiteSpace=wrap;rounded=0;" vertex="1" parent="1">
          <mxGeometry x="1196.25" y="1720" width="60" height="30" as="geometry" />
        </mxCell>
        <mxCell id="0eE5mDKedHnhcUvPpAx--1" value="Select output fields" style="rounded=1;whiteSpace=wrap;html=1;absoluteArcSize=1;arcSize=14;strokeWidth=2;" vertex="1" parent="1">
          <mxGeometry x="1148.13" y="2400" width="117.5" height="60" as="geometry" />
        </mxCell>
        <mxCell id="0eE5mDKedHnhcUvPpAx--2" value="" style="endArrow=classic;html=1;rounded=0;exitX=0.5;exitY=1;exitDx=0;exitDy=0;entryX=0.5;entryY=0;entryDx=0;entryDy=0;" edge="1" parent="1" source="HnQaNsxPzA5SRA8-1qJC-65" target="HnQaNsxPzA5SRA8-1qJC-69">
          <mxGeometry width="50" height="50" relative="1" as="geometry">
            <mxPoint x="1040.63" y="2440" as="sourcePoint" />
            <mxPoint x="1090.63" y="2390" as="targetPoint" />
          </mxGeometry>
        </mxCell>
        <mxCell id="0eE5mDKedHnhcUvPpAx--3" value="" style="endArrow=classic;html=1;rounded=0;exitX=0.5;exitY=1;exitDx=0;exitDy=0;entryX=0.5;entryY=0;entryDx=0;entryDy=0;" edge="1" parent="1" source="HnQaNsxPzA5SRA8-1qJC-69" target="0eE5mDKedHnhcUvPpAx--1">
          <mxGeometry width="50" height="50" relative="1" as="geometry">
            <mxPoint x="1330.63" y="2360" as="sourcePoint" />
            <mxPoint x="1330.63" y="2400" as="targetPoint" />
          </mxGeometry>
        </mxCell>
        <mxCell id="0eE5mDKedHnhcUvPpAx--4" value="" style="endArrow=classic;html=1;rounded=0;exitX=0.5;exitY=1;exitDx=0;exitDy=0;entryX=0.5;entryY=0;entryDx=0;entryDy=0;" edge="1" parent="1" source="0eE5mDKedHnhcUvPpAx--1" target="HnQaNsxPzA5SRA8-1qJC-66">
          <mxGeometry width="50" height="50" relative="1" as="geometry">
            <mxPoint x="1225.63" y="2290" as="sourcePoint" />
            <mxPoint x="1225.63" y="2330" as="targetPoint" />
          </mxGeometry>
        </mxCell>
        <mxCell id="0eE5mDKedHnhcUvPpAx--5" value="" style="endArrow=classic;html=1;rounded=0;entryX=0.5;entryY=0;entryDx=0;entryDy=0;" edge="1" parent="1" target="HnQaNsxPzA5SRA8-1qJC-70">
          <mxGeometry width="50" height="50" relative="1" as="geometry">
            <mxPoint x="1206.63" y="2570" as="sourcePoint" />
            <mxPoint x="1235.63" y="2340" as="targetPoint" />
          </mxGeometry>
        </mxCell>
        <mxCell id="rG0WmPMiKk3WmuIztW5L-2" value="" style="strokeWidth=2;html=1;shape=mxgraph.flowchart.annotation_2;align=left;labelPosition=right;pointerEvents=1;direction=south;" vertex="1" parent="1">
          <mxGeometry x="1106.25" y="1730" width="197.5" height="50" as="geometry" />
        </mxCell>
        <mxCell id="rG0WmPMiKk3WmuIztW5L-4" value="" style="endArrow=classic;html=1;rounded=0;entryX=0.458;entryY=0.05;entryDx=0;entryDy=0;entryPerimeter=0;exitX=1;exitY=1;exitDx=0;exitDy=0;exitPerimeter=0;" edge="1" parent="1" source="rG0WmPMiKk3WmuIztW5L-2" target="rG0WmPMiKk3WmuIztW5L-5">
          <mxGeometry width="50" height="50" relative="1" as="geometry">
            <mxPoint x="1155" y="1780" as="sourcePoint" />
            <mxPoint x="1145" y="1780" as="targetPoint" />
          </mxGeometry>
        </mxCell>
        <mxCell id="rG0WmPMiKk3WmuIztW5L-5" value="Read media file&lt;div&gt;&amp;nbsp;and merge&lt;/div&gt;&lt;div&gt;ADWORDS&lt;/div&gt;" style="rounded=1;whiteSpace=wrap;html=1;absoluteArcSize=1;arcSize=14;strokeWidth=2;" vertex="1" parent="1">
          <mxGeometry x="1050" y="1790" width="120" height="60" as="geometry" />
        </mxCell>
        <mxCell id="rG0WmPMiKk3WmuIztW5L-6" value="" style="endArrow=classic;html=1;rounded=0;entryX=0.458;entryY=0.05;entryDx=0;entryDy=0;entryPerimeter=0;exitX=1;exitY=0;exitDx=0;exitDy=0;exitPerimeter=0;" edge="1" parent="1" source="rG0WmPMiKk3WmuIztW5L-2" target="rG0WmPMiKk3WmuIztW5L-7">
          <mxGeometry width="50" height="50" relative="1" as="geometry">
            <mxPoint x="1296" y="1800" as="sourcePoint" />
            <mxPoint x="1335" y="1800" as="targetPoint" />
          </mxGeometry>
        </mxCell>
        <mxCell id="rG0WmPMiKk3WmuIztW5L-7" value="Read media file&amp;nbsp;&lt;div&gt;and merge&amp;nbsp;&lt;/div&gt;&lt;div&gt;YSS&lt;/div&gt;" style="rounded=1;whiteSpace=wrap;html=1;absoluteArcSize=1;arcSize=14;strokeWidth=2;" vertex="1" parent="1">
          <mxGeometry x="1250" y="1790" width="120" height="60" as="geometry" />
        </mxCell>
        <mxCell id="rG0WmPMiKk3WmuIztW5L-10" value="" style="strokeWidth=2;html=1;shape=mxgraph.flowchart.annotation_2;align=left;labelPosition=right;pointerEvents=1;direction=north;" vertex="1" parent="1">
          <mxGeometry x="1106.25" y="1851" width="200" height="50" as="geometry" />
        </mxCell>
        <mxCell id="rG0WmPMiKk3WmuIztW5L-11" value="" style="endArrow=classic;html=1;rounded=0;exitX=0.5;exitY=1;exitDx=0;exitDy=0;" edge="1" parent="1" source="rG0WmPMiKk3WmuIztW5L-12" target="HnQaNsxPzA5SRA8-1qJC-68">
          <mxGeometry width="50" height="50" relative="1" as="geometry">
            <mxPoint x="1400" y="2140" as="sourcePoint" />
            <mxPoint x="1450" y="2090" as="targetPoint" />
          </mxGeometry>
        </mxCell>
        <mxCell id="rG0WmPMiKk3WmuIztW5L-12" value="Union" style="rounded=1;whiteSpace=wrap;html=1;absoluteArcSize=1;arcSize=14;strokeWidth=2;" vertex="1" parent="1">
          <mxGeometry x="1148.13" y="1901" width="117.5" height="60" as="geometry" />
        </mxCell>
        <mxCell id="rG0WmPMiKk3WmuIztW5L-13" value="" style="rounded=0;whiteSpace=wrap;html=1;" vertex="1" parent="1">
          <mxGeometry x="200" y="2690" width="360" height="420" as="geometry" />
        </mxCell>
        <mxCell id="rG0WmPMiKk3WmuIztW5L-14" value="Start" style="strokeWidth=2;html=1;shape=mxgraph.flowchart.start_2;whiteSpace=wrap;" vertex="1" parent="1">
          <mxGeometry x="356.25" y="2700" width="50" height="50" as="geometry" />
        </mxCell>
        <mxCell id="rG0WmPMiKk3WmuIztW5L-15" value="Get variable&lt;div&gt;(START_DATE,&lt;/div&gt;&lt;div&gt;END_DATE)&lt;/div&gt;" style="rounded=1;whiteSpace=wrap;html=1;absoluteArcSize=1;arcSize=14;strokeWidth=2;" vertex="1" parent="1">
          <mxGeometry x="321.25" y="2790" width="117.5" height="60" as="geometry" />
        </mxCell>
        <mxCell id="rG0WmPMiKk3WmuIztW5L-16" value="End" style="strokeWidth=2;html=1;shape=mxgraph.flowchart.start_2;whiteSpace=wrap;" vertex="1" parent="1">
          <mxGeometry x="355" y="3035" width="50" height="50" as="geometry" />
        </mxCell>
        <mxCell id="rG0WmPMiKk3WmuIztW5L-17" value="" style="endArrow=classic;html=1;rounded=0;exitX=0.5;exitY=1;exitDx=0;exitDy=0;exitPerimeter=0;entryX=0.5;entryY=0;entryDx=0;entryDy=0;" edge="1" parent="1" source="rG0WmPMiKk3WmuIztW5L-14" target="rG0WmPMiKk3WmuIztW5L-15">
          <mxGeometry width="50" height="50" relative="1" as="geometry">
            <mxPoint x="541.25" y="2890" as="sourcePoint" />
            <mxPoint x="601.25" y="2970" as="targetPoint" />
          </mxGeometry>
        </mxCell>
        <mxCell id="rG0WmPMiKk3WmuIztW5L-18" value="Create empty file" style="rounded=1;whiteSpace=wrap;html=1;absoluteArcSize=1;arcSize=14;strokeWidth=2;" vertex="1" parent="1">
          <mxGeometry x="321.25" y="2900" width="117.5" height="60" as="geometry" />
        </mxCell>
        <mxCell id="rG0WmPMiKk3WmuIztW5L-19" value="" style="endArrow=classic;html=1;rounded=0;exitX=0.5;exitY=1;exitDx=0;exitDy=0;" edge="1" parent="1" source="rG0WmPMiKk3WmuIztW5L-15" target="rG0WmPMiKk3WmuIztW5L-18">
          <mxGeometry width="50" height="50" relative="1" as="geometry">
            <mxPoint x="501.25" y="3090" as="sourcePoint" />
            <mxPoint x="551.25" y="3040" as="targetPoint" />
          </mxGeometry>
        </mxCell>
        <mxCell id="rG0WmPMiKk3WmuIztW5L-20" value="&lt;span style=&quot;font-size: 21px;&quot;&gt;Read media file and merge ADWORDS&lt;/span&gt;" style="text;html=1;align=left;verticalAlign=middle;whiteSpace=wrap;rounded=0;" vertex="1" parent="1">
          <mxGeometry x="200" y="2660" width="380" height="30" as="geometry" />
        </mxCell>
        <mxCell id="rG0WmPMiKk3WmuIztW5L-21" value="" style="endArrow=classic;html=1;rounded=0;exitX=0.5;exitY=1;exitDx=0;exitDy=0;entryX=0.5;entryY=0;entryDx=0;entryDy=0;entryPerimeter=0;" edge="1" parent="1" source="rG0WmPMiKk3WmuIztW5L-18" target="rG0WmPMiKk3WmuIztW5L-16">
          <mxGeometry width="50" height="50" relative="1" as="geometry">
            <mxPoint x="440" y="2980" as="sourcePoint" />
            <mxPoint x="440" y="3040" as="targetPoint" />
          </mxGeometry>
        </mxCell>
      </root>
    </mxGraphModel>
  </diagram>
</mxfile>
